# Blender v2.77 (sub 0) OBJ File: 'Window.blend'
# www.blender.org
mtllib Broken Window.mtl
o Broken_Window_Cube.000
v -1.000000 1.800000 0.015000
v -1.000000 1.800000 -0.015000
v -1.000000 1.289668 -0.015000
v -1.000000 1.289668 0.015000
v 1.000000 1.800000 0.015000
v -0.839773 1.564835 0.015000
v -0.674751 1.478422 0.015000
v -0.584612 1.670837 0.015000
v -0.192265 1.735758 0.015000
v -0.112659 1.556328 0.015000
v -0.089718 1.433563 0.015000
v 0.044611 1.677927 0.015000
v 0.201493 1.526232 0.015000
v 0.350765 1.766760 0.015000
v 0.500036 1.742855 0.015000
v 0.584784 1.596472 0.015000
v 0.660212 1.499671 0.015000
v 0.896250 1.621263 0.015000
v 1.000000 1.332239 0.015000
v 1.000000 1.800000 -0.015000
v 1.000000 1.332239 -0.015000
v 0.896250 1.621263 -0.015000
v 0.660212 1.499671 -0.015000
v 0.584784 1.596472 -0.015000
v 0.500036 1.742855 -0.015000
v 0.350765 1.766760 -0.015000
v 0.201493 1.526232 -0.015000
v 0.044611 1.677927 -0.015000
v -0.089718 1.433563 -0.015000
v -0.112659 1.556328 -0.015000
v -0.192265 1.735758 -0.015000
v -0.584612 1.670837 -0.015000
v -0.674751 1.478422 -0.015000
v -0.839773 1.564835 -0.015000
v -1.000000 -1.289668 -0.015000
v -1.000000 -1.800000 -0.015000
v -1.000000 -1.800000 0.015000
v -1.000000 -1.289668 0.015000
v 1.000000 -1.332239 -0.015000
v 1.000000 -1.800000 -0.015000
v -0.839773 -1.564835 -0.015000
v -0.674751 -1.478422 -0.015000
v -0.584612 -1.670837 -0.015000
v -0.192265 -1.735758 -0.015000
v -0.112659 -1.556328 -0.015000
v -0.089718 -1.433563 -0.015000
v 0.044611 -1.677927 -0.015000
v 0.201493 -1.526232 -0.015000
v 0.350765 -1.766760 -0.015000
v 0.500036 -1.742855 -0.015000
v 0.584784 -1.596472 -0.015000
v 0.660212 -1.499671 -0.015000
v 0.896250 -1.621263 -0.015000
v 1.000000 -1.800000 0.015000
v 1.000000 -1.332239 0.015000
v 0.896250 -1.621263 0.015000
v 0.660212 -1.499671 0.015000
v 0.584784 -1.596472 0.015000
v 0.500036 -1.742855 0.015000
v 0.350765 -1.766760 0.015000
v 0.201493 -1.526232 0.015000
v 0.044611 -1.677927 0.015000
v -0.089718 -1.433563 0.015000
v -0.112659 -1.556328 0.015000
v -0.192265 -1.735758 0.015000
v -0.584612 -1.670837 0.015000
v -0.674751 -1.478422 0.015000
v -0.839773 -1.564835 0.015000
vn -1.0000 0.0000 0.0000
vn 0.0000 0.0000 1.0000
vn 0.0000 1.0000 0.0000
vn 0.0000 0.0000 -1.0000
vn 1.0000 0.0000 0.0000
vn -0.6951 -0.7189 0.0000
vn 0.8763 -0.4817 0.0000
vn 0.8497 -0.5273 0.0000
vn -0.9830 -0.1837 0.0000
vn -0.1581 -0.9874 0.0000
vn -0.9141 -0.4055 0.0000
vn -0.8654 -0.5010 0.0000
vn 0.1632 -0.9866 0.0000
vn -0.7888 -0.6146 0.0000
vn 0.9056 -0.4242 0.0000
vn 0.4579 -0.8890 0.0000
vn -0.4639 -0.8859 0.0000
vn -0.9412 -0.3379 0.0000
vn 0.8642 -0.5032 0.0000
vn 0.0000 -1.0000 0.0000
vn -0.6951 0.7189 0.0000
vn 0.8497 0.5273 0.0000
vn 0.8763 0.4817 0.0000
vn -0.1581 0.9874 0.0000
vn -0.9830 0.1837 0.0000
vn -0.8654 0.5010 0.0000
vn -0.9141 0.4055 0.0000
vn -0.7888 0.6146 0.0000
vn 0.1632 0.9866 0.0000
vn 0.4579 0.8890 0.0000
vn 0.9056 0.4242 0.0000
vn -0.9412 0.3379 0.0000
vn -0.4639 0.8859 0.0000
vn 0.8642 0.5032 0.0000
usemtl Window_material.001
s off
f 1//1 2//1 3//1 4//1
f 5//2 1//2 4//2 6//2 7//2 8//2 9//2 10//2 11//2 12//2 13//2 14//2 15//2 16//2 17//2 18//2 19//2
f 5//3 20//3 2//3 1//3
f 2//4 20//4 21//4 22//4 23//4 24//4 25//4 26//4 27//4 28//4 29//4 30//4 31//4 32//4 33//4 34//4 3//4
f 20//5 5//5 19//5 21//5
f 12//6 28//6 27//6 13//6
f 11//7 29//7 28//7 12//7
f 13//8 27//8 26//8 14//8
f 10//9 30//9 29//9 11//9
f 14//10 26//10 25//10 15//10
f 9//11 31//11 30//11 10//11
f 15//12 25//12 24//12 16//12
f 8//13 32//13 31//13 9//13
f 16//14 24//14 23//14 17//14
f 7//15 33//15 32//15 8//15
f 17//16 23//16 22//16 18//16
f 6//17 34//17 33//17 7//17
f 18//18 22//18 21//18 19//18
f 34//19 6//19 4//19 3//19
f 35//1 36//1 37//1 38//1
f 39//4 40//4 36//4 35//4 41//4 42//4 43//4 44//4 45//4 46//4 47//4 48//4 49//4 50//4 51//4 52//4 53//4
f 37//20 36//20 40//20 54//20
f 38//2 37//2 54//2 55//2 56//2 57//2 58//2 59//2 60//2 61//2 62//2 63//2 64//2 65//2 66//2 67//2 68//2
f 55//5 54//5 40//5 39//5
f 61//21 48//21 47//21 62//21
f 60//22 49//22 48//22 61//22
f 62//23 47//23 46//23 63//23
f 59//24 50//24 49//24 60//24
f 63//25 46//25 45//25 64//25
f 58//26 51//26 50//26 59//26
f 64//27 45//27 44//27 65//27
f 57//28 52//28 51//28 58//28
f 65//29 44//29 43//29 66//29
f 56//30 53//30 52//30 57//30
f 66//31 43//31 42//31 67//31
f 53//32 56//32 55//32 39//32
f 67//33 42//33 41//33 68//33
f 68//34 41//34 35//34 38//34
