# Blender v2.79 (sub 6) OBJ File: 'Door.blend'
# www.blender.org
mtllib Door - Door.mtl
o Door_Cube.001
v -0.500000 0.000000 2.000000
v -0.500000 7.600000 2.000000
v -0.500000 0.000000 -2.000000
v -0.500000 7.600000 -2.000000
v 0.500000 0.000000 2.000000
v 0.500000 7.600000 2.000000
v 0.500000 0.000000 -2.000000
v 0.500000 7.600000 -2.000000
v 0.500000 7.600000 -0.950491
v -0.500000 3.997231 2.000000
v 0.500000 4.006859 2.000000
v -0.500000 7.600000 -0.958398
v 0.500000 7.600000 1.424714
v -0.500000 4.040812 -2.000000
v 0.500000 6.278996 0.134245
v -0.500000 6.245564 0.153791
v 0.500000 4.094251 -2.000000
v -0.500000 7.600000 1.476920
v -0.500000 5.093056 2.000000
v 0.500000 4.630346 1.488026
v -0.500000 4.690825 1.430458
v 0.500000 2.166980 -2.000000
v -0.500000 2.268119 -2.000000
v 0.500000 4.991920 2.000000
v -0.500000 5.047099 1.137906
v 0.500000 6.818104 0.660891
v 0.500000 7.600000 0.437589
v -0.500000 2.028480 2.000000
v 0.500000 5.008140 1.177803
v 0.500000 4.511439 1.319658
v -0.500000 7.600000 0.408816
v 0.500000 2.129223 2.000000
v -0.500000 4.578691 1.271680
v -0.500000 6.753963 0.650438
v -0.500000 0.000000 0.893436
v 0.500000 0.000000 0.661451
v -0.500000 3.869149 -2.000000
v 0.500000 2.648053 -1.318820
v 0.500000 3.558937 -2.000000
v -0.500000 2.821448 -1.216507
vn -1.0000 0.0000 0.0000
vn 0.0000 0.0000 -1.0000
vn 1.0000 0.0000 0.0000
vn 0.0000 0.0000 1.0000
vn 0.0000 -1.0000 0.0000
vn 0.0000 1.0000 0.0000
usemtl Door
s off
f 2//1 18//1 34//1 25//1 21//1 19//1
f 4//2 8//2 17//2 14//2
f 8//3 9//3 15//3 17//3
f 6//4 2//4 19//4 24//4
f 1//5 35//5 36//5 5//5
f 6//6 13//6 18//6 2//6
f 12//6 9//6 8//6 4//6
f 11//3 20//3 24//3
f 11//4 10//4 28//4 32//4
f 10//1 21//1 33//1 28//1
f 14//2 17//2 39//2 37//2
f 13//3 26//3 27//3
f 18//6 13//6 27//6 31//6
f 17//3 15//3 29//3 30//3 38//3 39//3
f 14//1 16//1 12//1 4//1
f 16//1 34//1 31//1 12//1
f 23//1 40//1 37//1
f 22//3 38//3 36//3 7//3
f 24//4 19//4 10//4 11//4
f 23//2 22//2 7//2 3//2
f 19//1 21//1 10//1
f 24//3 20//3 29//3 26//3 13//3 6//3
f 32//3 30//3 20//3 11//3
f 32//4 28//4 1//4 5//4
f 31//1 34//1 18//1
f 26//3 29//3 15//3
f 31//6 27//6 9//6 12//6
f 28//1 33//1 40//1 35//1 1//1
f 30//3 29//3 20//3
f 25//1 33//1 21//1
f 25//1 34//1 16//1
f 27//3 26//3 15//3 9//3
f 36//3 38//3 30//3 32//3 5//3
f 39//3 38//3 22//3
f 37//2 39//2 22//2 23//2
f 37//1 40//1 33//1 25//1 16//1 14//1
f 36//5 35//5 3//5 7//5
f 35//1 40//1 23//1 3//1
