# Blender v2.79 (sub 6) OBJ File: 'House.blend'
# www.blender.org
mtllib House.mtl
o Cube_Cube.001
v -7.500000 0.000000 1.000000
v -7.500000 1.000000 1.000000
v -7.500000 0.000000 -1.000000
v -7.500000 1.000000 -1.000000
v 7.500000 0.000000 1.000000
v 7.500000 1.000000 1.000000
v 7.500000 0.000000 -1.000000
v 7.500000 1.000000 -1.000000
v -6.500000 1.000000 -1.000000
v -6.500000 0.000000 -1.000000
v -6.500000 1.000000 1.000000
v -6.500000 0.000000 1.000000
v 6.500000 1.000000 -1.000000
v 6.500000 0.000000 1.000000
v 6.500000 0.000000 -1.000000
v 6.500000 1.000000 1.000000
v -7.500000 6.000002 1.000000
v -7.500000 6.000002 -1.000000
v -6.500000 6.000002 -1.000000
v -6.500000 6.000002 1.000000
v 7.500000 11.000002 1.000000
v 7.500000 11.000002 -1.000000
v -7.500000 5.000002 1.000000
v -7.500000 5.000002 -1.000000
v -6.500000 5.000002 -1.000000
v -6.500000 5.000002 1.000000
v 6.500000 10.000002 1.000000
v 6.500000 10.000002 -1.000000
v 7.500000 10.000002 1.000000
v 7.500000 10.000002 -1.000000
v 3.000000 6.000002 -1.000000
v 3.000000 6.000002 1.000000
v 3.000000 5.000002 -1.000000
v 3.000000 5.000002 1.000000
v -7.500000 11.000002 1.000000
v -7.500000 11.000002 -1.000000
v -7.500000 10.000002 -1.000000
v -6.500000 10.000002 -1.000000
v -7.500000 10.000002 1.000000
v -6.500000 10.000002 1.000000
v -7.500000 4.800002 -1.000000
v -6.500000 4.800002 -1.000000
v -7.500000 4.800002 1.000000
v -6.500000 4.800002 1.000000
v 6.500000 4.800002 -1.000000
v 7.500000 4.800002 -1.000000
v 6.500000 4.800002 1.000000
v 7.500000 4.800002 1.000000
v 0.000000 15.110114 -1.000000
v 0.000000 10.000002 -1.000000
v 0.000000 15.110114 1.000000
v 0.000000 10.000002 1.000000
v -7.500000 0.200000 1.000000
v -7.500000 0.400000 1.000000
v -7.500000 0.600000 1.000000
v -7.500000 0.800000 1.000000
v -7.500000 1.000000 0.600000
v -7.500000 1.000000 0.200000
v -7.500000 1.000000 -0.200000
v -7.500000 1.000000 -0.600000
v -7.500000 0.800000 -1.000000
v -7.500000 0.600000 -1.000000
v -7.500000 0.400000 -1.000000
v -7.500000 0.200000 -1.000000
v -7.500000 0.800000 0.600000
v -7.500000 0.800000 0.200000
v -8.166601 0.400000 -1.000000
v -8.166601 0.600000 -1.000000
v -8.166601 0.600000 1.000000
v -7.500000 0.800000 -0.200000
v -8.166601 0.400000 1.000000
v -8.166601 0.200000 1.000000
v -8.166601 0.000000 1.000000
v -7.500000 0.800000 -0.600000
v -8.166601 0.000000 -1.000000
v -8.166601 0.200000 -1.000000
v -7.833333 0.200000 -1.000000
v -7.833333 0.000000 -1.000000
v -7.833333 0.000000 1.000000
v -7.833333 0.200000 1.000000
v -7.833333 0.400000 1.000000
v -7.833333 0.600000 1.000000
v -7.833333 0.800000 1.000000
v -7.833333 0.800000 -1.000000
v -7.833333 0.600000 -1.000000
v -7.833333 0.400000 -1.000000
v -7.833333 0.800000 0.600000
v -7.833333 0.600000 0.600000
v -7.833333 0.800000 0.200000
v -7.833333 0.600000 0.200000
v -7.833333 0.800000 -0.200000
v -7.833333 0.600000 -0.200000
v -7.833333 0.800000 -0.600000
v -7.833333 0.600000 -0.600000
v -8.833267 0.000000 -0.200000
v -8.166601 0.600000 0.600000
v -8.166601 0.400000 0.600000
v -8.833267 0.000000 0.200000
v -8.166601 0.600000 0.200000
v -8.166601 0.400000 0.200000
v -8.833267 0.000000 0.600000
v -8.166601 0.600000 -0.200000
v -8.166601 0.400000 -0.200000
v -8.833267 0.200000 0.600000
v -8.166601 0.600000 -0.600000
v -8.166601 0.400000 -0.600000
v -8.499934 0.200000 0.600000
v -8.499934 0.000000 -1.000000
v -8.499934 0.400000 -1.000000
v -8.499934 0.200000 -1.000000
v -8.499934 0.200000 1.000000
v -8.499934 0.400000 1.000000
v -8.499934 0.000000 1.000000
v -8.499934 0.400000 0.600000
v -8.499934 0.200000 0.200000
v -8.499934 0.400000 0.200000
v -8.499934 0.200000 -0.200000
v -8.499934 0.400000 -0.200000
v -8.499934 0.200000 -0.600000
v -8.499934 0.400000 -0.600000
v -8.833267 0.000000 -0.600000
v -8.833267 0.000000 -1.000000
v -8.833267 0.000000 1.000000
v -8.833267 0.200000 1.000000
v -8.833267 0.200000 -1.000000
v -8.833267 0.200000 0.200000
v -8.833267 0.200000 -0.200000
v -8.833267 0.200000 -0.600000
v 7.500000 0.800000 -1.000000
v 7.500000 0.600000 -1.000000
v 7.500000 0.400000 -1.000000
v 7.500000 0.200000 -1.000000
v 7.500000 1.000000 -0.600000
v 7.500000 1.000000 -0.200000
v 7.500000 1.000000 0.200000
v 7.500000 1.000000 0.600000
v 7.500000 0.800000 1.000000
v 7.500000 0.600000 1.000000
v 7.500000 0.400000 1.000000
v 7.500000 0.200000 1.000000
v 7.500000 0.800000 -0.600000
v 7.500000 0.800000 -0.200000
v 8.166666 0.400000 1.000000
v 8.166666 0.600000 1.000000
v 8.166666 0.400000 -1.000000
v 7.500000 0.800000 0.200000
v 8.166666 0.600000 -1.000000
v 8.166666 0.000000 1.000000
v 7.500000 0.800000 0.600000
v 8.166666 0.200000 1.000000
v 8.166666 0.000000 -1.000000
v 8.166666 0.200000 -1.000000
v 7.833333 0.200000 -1.000000
v 7.833333 0.000000 -1.000000
v 7.833333 0.200000 1.000000
v 7.833333 0.000000 1.000000
v 7.833333 0.800000 -1.000000
v 7.833333 0.600000 -1.000000
v 7.833333 0.400000 -1.000000
v 7.833333 0.800000 1.000000
v 7.833333 0.600000 1.000000
v 7.833333 0.400000 1.000000
v 8.499999 0.200000 1.000000
v 7.833333 0.800000 -0.600000
v 7.833333 0.600000 -0.600000
v 8.499999 0.400000 1.000000
v 8.499999 0.000000 1.000000
v 7.833333 0.800000 -0.200000
v 7.833333 0.600000 -0.200000
v 7.833333 0.800000 0.200000
v 7.833333 0.600000 0.200000
v 7.833333 0.800000 0.600000
v 7.833333 0.600000 0.600000
v 8.499999 0.200000 -0.600000
v 8.833299 0.000000 -0.200000
v 8.166666 0.600000 -0.600000
v 8.166666 0.400000 -0.600000
v 8.833299 0.000000 0.200000
v 8.166666 0.600000 -0.200000
v 8.166666 0.400000 -0.200000
v 8.833299 0.000000 0.600000
v 8.166666 0.600000 0.200000
v 8.166666 0.400000 0.200000
v 8.833299 0.000000 1.000000
v 8.166666 0.600000 0.600000
v 8.166666 0.400000 0.600000
v 8.499999 0.400000 -1.000000
v 8.499999 0.200000 -1.000000
v 8.499999 0.000000 -1.000000
v 8.499999 0.400000 -0.600000
v 8.499999 0.200000 -0.200000
v 8.499999 0.400000 -0.200000
v 8.499999 0.200000 0.200000
v 8.499999 0.400000 0.200000
v 8.499999 0.200000 0.600000
v 8.499999 0.400000 0.600000
v 8.833299 0.000000 -0.600000
v 8.833299 0.200000 -0.600000
v 8.833299 0.000000 -1.000000
v 8.833299 0.200000 1.000000
v 8.833299 0.200000 -1.000000
v 8.833299 0.200000 -0.200000
v 8.833299 0.200000 0.200000
v 8.833299 0.200000 0.600000
v -6.500000 6.200000 -1.000000
v -6.500000 6.200000 1.000000
v -7.500000 6.200000 -1.000000
v -7.500000 6.200000 1.000000
v -7.500000 9.800000 -1.000000
v -7.500000 9.800000 1.000000
v -6.500000 9.800000 -1.000000
v -6.500000 9.800000 1.000000
v -6.500000 -3.000000 -1.000000
v -7.500000 -3.000000 -1.000000
v 6.500000 -3.000000 1.000000
v 7.500000 -3.000000 1.000000
v 6.500000 -3.000000 -1.000000
v -7.500000 -3.000000 1.000000
v -6.500000 -3.000000 1.000000
v 7.500000 -3.000000 -1.000000
v -7.833333 -3.000000 1.000000
v -7.833333 -3.000000 -1.000000
v -8.166601 -3.000000 1.000000
v -8.166601 -3.000000 -1.000000
v -8.499934 -3.000000 -1.000000
v -8.499934 -3.000000 1.000000
v -8.833267 -3.000000 -1.000000
v -8.833267 -3.000000 1.000000
v 7.833333 -3.000000 1.000000
v 7.833333 -3.000000 -1.000000
v 8.166666 -3.000000 -1.000000
v 8.166666 -3.000000 1.000000
v 8.499999 -3.000000 1.000000
v 8.499999 -3.000000 -1.000000
v 8.833299 -3.000000 1.000000
v 8.833299 -3.000000 -1.000000
v -28.833267 0.000000 0.200000
v -28.833267 0.000000 0.600000
v -28.833267 0.000000 -0.200000
v -28.833267 0.000000 -0.600000
v -28.833267 0.000000 -1.000000
v -28.833267 0.000000 1.000000
v -28.833267 -3.000000 0.200000
v -28.833267 -3.000000 0.600000
v -28.833267 -3.000000 -0.200000
v -28.833267 -3.000000 -0.600000
v -28.833267 -3.000000 -1.000000
v -28.833267 -3.000000 1.000000
v 28.833298 0.000000 1.000000
v 28.833298 0.000000 0.600000
v 28.833298 0.000000 0.200000
v 28.833298 0.000000 -0.200000
v 28.833298 0.000000 -0.600000
v 28.833298 0.000000 -1.000000
v 28.833298 -3.000000 1.000000
v 28.833298 -3.000000 0.600000
v 28.833298 -3.000000 0.200000
v 28.833298 -3.000000 -0.200000
v 28.833298 -3.000000 -0.600000
v 28.833298 -3.000000 -1.000000
vn 0.0000 0.0000 -1.0000
vn 0.0000 1.0000 0.0000
vn 0.0000 0.0000 1.0000
vn -1.0000 0.0000 0.0000
vn 1.0000 0.0000 0.0000
vn 0.0000 -1.0000 0.0000
vn 0.4806 0.8769 0.0000
vn -0.4806 0.8769 0.0000
vn 0.0098 1.0000 0.0000
usemtl None
s off
f 13//1 8//1 129//1 130//1 131//1 132//1 7//1 15//1
f 180//2 183//2 194//2 192//2
f 11//3 2//3 56//3 55//3 54//3 53//3 1//3 12//3
f 24//4 23//4 17//4 18//4
f 16//2 13//2 9//2 11//2
f 16//3 11//3 12//3 14//3
f 4//1 9//1 10//1 3//1 64//1 63//1 62//1 61//1
f 6//3 16//3 14//3 5//3 140//3 139//3 138//3 137//3
f 9//1 13//1 15//1 10//1
f 52//3 51//3 35//3 39//3 40//3
f 25//1 24//1 18//1 19//1
f 23//3 26//3 20//3 17//3
f 21//3 51//3 52//3 27//3 29//3
f 28//1 50//1 49//1 22//1 30//1
f 29//5 30//5 22//5 21//5
f 44//5 42//5 25//5 26//5
f 43//3 44//3 26//3 23//3
f 42//1 41//1 24//1 25//1
f 41//4 43//4 23//4 24//4
f 48//5 46//5 30//5 29//5
f 46//1 45//1 28//1 30//1
f 47//3 48//3 29//3 27//3
f 45//4 47//4 27//4 28//4
f 37//4 39//4 35//4 36//4
f 50//1 38//1 37//1 36//1 49//1
f 34//5 33//5 31//5 32//5
f 20//3 26//3 34//3 32//3
f 25//6 33//6 34//6 26//6
f 25//1 19//1 31//1 33//1
f 20//2 32//2 31//2 19//2
f 22//7 49//7 51//7 21//7
f 210//3 212//3 40//3 39//3
f 212//5 211//5 38//5 40//5
f 209//4 210//4 39//4 37//4
f 211//1 209//1 37//1 38//1
f 52//6 40//6 38//6 50//6
f 47//6 45//6 46//6 48//6
f 43//6 41//6 42//6 44//6
f 2//2 11//2 9//2 4//2 60//2 59//2 58//2 57//2
f 13//2 16//2 6//2 136//2 135//2 134//2 133//2 8//2
f 27//6 52//6 50//6 28//6
f 51//8 49//8 36//8 35//8
f 103//2 106//2 120//2 118//2
f 63//1 64//1 77//1 86//1
f 70//2 74//2 93//2 91//2
f 55//3 56//3 83//3 82//3
f 2//4 57//4 65//4 56//4
f 65//2 66//2 89//2 87//2
f 62//1 63//1 86//1 85//1
f 54//3 55//3 82//3 81//3
f 57//4 58//4 66//4 65//4
f 61//1 62//1 85//1 84//1
f 53//3 54//3 81//3 80//3
f 58//4 59//4 70//4 66//4
f 74//2 61//2 84//2 93//2
f 1//3 53//3 80//3 79//3
f 66//2 70//2 91//2 89//2
f 59//4 60//4 74//4 70//4
f 56//2 65//2 87//2 83//2
f 60//4 4//4 61//4 74//4
f 64//1 3//1 78//1 77//1
f 92//2 94//2 105//2 102//2
f 88//2 90//2 99//2 96//2
f 81//3 82//3 69//3 71//3
f 83//4 87//4 88//4 82//4
f 80//3 81//3 71//3 72//3
f 87//4 89//4 90//4 88//4
f 79//3 80//3 72//3 73//3
f 89//4 91//4 92//4 90//4
f 94//2 85//2 68//2 105//2
f 91//4 93//4 94//4 92//4
f 90//2 92//2 102//2 99//2
f 86//1 77//1 76//1 67//1
f 93//4 84//4 85//4 94//4
f 82//2 88//2 96//2 69//2
f 77//1 78//1 75//1 76//1
f 73//3 72//3 111//3 113//3
f 71//2 97//2 114//2 112//2
f 69//4 96//4 97//4 71//4
f 96//4 99//4 100//4 97//4
f 72//3 71//3 112//3 111//3
f 99//4 102//4 103//4 100//4
f 102//4 105//4 106//4 103//4
f 100//2 103//2 118//2 116//2
f 105//4 68//4 67//4 106//4
f 85//1 86//1 67//1 68//1
f 107//2 115//2 126//2 104//2
f 110//1 108//1 122//1 125//1
f 119//2 110//2 125//2 128//2
f 112//4 114//4 107//4 111//4
f 114//4 116//4 115//4 107//4
f 116//4 118//4 117//4 115//4
f 118//4 120//4 119//4 117//4
f 120//4 109//4 110//4 119//4
f 76//1 75//1 108//1 110//1
f 67//1 76//1 110//1 109//1
f 97//2 100//2 116//2 114//2
f 106//2 67//2 109//2 120//2
f 124//4 104//4 101//4 123//4
f 128//4 125//4 122//4 121//4
f 104//4 126//4 98//4 101//4
f 126//4 127//4 95//4 98//4
f 127//4 128//4 121//4 95//4
f 117//2 119//2 128//2 127//2
f 113//3 111//3 124//3 123//3
f 111//2 107//2 104//2 124//2
f 115//2 117//2 127//2 126//2
f 186//2 143//2 166//2 196//2
f 140//3 5//3 156//3 155//3
f 8//5 133//5 141//5 129//5
f 139//3 140//3 155//3 162//3
f 146//2 149//2 172//2 170//2
f 132//1 131//1 159//1 153//1
f 133//5 134//5 142//5 141//5
f 141//2 142//2 168//2 164//2
f 138//3 139//3 162//3 161//3
f 131//1 130//1 158//1 159//1
f 134//5 135//5 146//5 142//5
f 137//3 138//3 161//3 160//3
f 7//1 132//1 153//1 154//1
f 130//1 129//1 157//1 158//1
f 135//5 136//5 149//5 146//5
f 149//2 137//2 160//2 172//2
f 142//2 146//2 170//2 168//2
f 136//5 6//5 137//5 149//5
f 129//2 141//2 164//2 157//2
f 169//2 171//2 182//2 179//2
f 162//3 155//3 150//3 143//3
f 158//2 165//2 176//2 147//2
f 154//1 153//1 152//1 151//1
f 161//3 162//3 143//3 144//3
f 157//5 164//5 165//5 158//5
f 153//1 159//1 145//1 152//1
f 171//2 173//2 185//2 182//2
f 164//5 168//5 169//5 165//5
f 165//2 169//2 179//2 176//2
f 168//5 170//5 171//5 169//5
f 159//1 158//1 147//1 145//1
f 170//5 172//5 173//5 171//5
f 172//5 160//5 161//5 173//5
f 173//2 161//2 144//2 185//2
f 143//3 150//3 163//3 166//3
f 151//1 152//1 188//1 189//1
f 147//5 176//5 177//5 145//5
f 177//2 180//2 192//2 190//2
f 176//5 179//5 180//5 177//5
f 150//3 148//3 167//3 163//3
f 179//5 182//5 183//5 180//5
f 182//5 185//5 186//5 183//5
f 183//2 186//2 196//2 194//2
f 185//5 144//5 143//5 186//5
f 155//3 156//3 148//3 150//3
f 188//2 174//2 198//2 201//2
f 193//2 195//2 204//2 203//2
f 174//2 191//2 202//2 198//2
f 187//5 190//5 174//5 188//5
f 190//5 192//5 191//5 174//5
f 192//5 194//5 193//5 191//5
f 194//5 196//5 195//5 193//5
f 196//5 166//5 163//5 195//5
f 152//1 145//1 187//1 188//1
f 145//2 177//2 190//2 187//2
f 201//5 198//5 197//5 199//5
f 204//5 200//5 184//5 181//5
f 198//5 202//5 175//5 197//5
f 202//5 203//5 178//5 175//5
f 203//5 204//5 181//5 178//5
f 163//3 167//3 184//3 200//3
f 191//2 193//2 203//2 202//2
f 195//2 163//2 200//2 204//2
f 189//1 188//1 201//1 199//1
f 19//1 18//1 207//1 205//1
f 18//4 17//4 208//4 207//4
f 20//5 19//5 205//5 206//5
f 17//3 20//3 206//3 208//3
f 207//2 208//2 206//2 205//2
f 209//6 211//6 212//6 210//6
f 238//4 237//4 239//4 240//4 241//4 247//4 246//4 245//4 243//4 244//4 248//4 242//4
f 10//1 15//1 7//1 154//1 151//1 189//1 199//1 254//1 260//1 236//1 234//1 231//1 230//1 220//1 217//1 213//1 214//1 222//1 224//1 225//1 227//1 247//1 241//1 122//1 108//1 75//1 78//1 3//1
f 213//6 217//6 220//6 230//6 231//6 234//6 236//6 260//6 259//6 258//6 257//6 256//6 255//6 235//6 233//6 232//6 229//6 216//6 215//6 219//6 218//6 221//6 223//6 226//6 228//6 248//6 244//6 243//6 245//6 246//6 247//6 227//6 225//6 224//6 222//6 214//6
f 250//5 249//5 255//5 256//5 257//5 258//5 259//5 260//5 254//5 253//5 252//5 251//5
f 195//9 163//9 167//9 184//9 249//9 250//9 251//9 252//9 253//9 254//9 199//9 189//9 188//9 174//9 191//9 193//9
f 101//2 98//2 95//2 121//2 122//2 241//2 240//2 239//2 237//2 238//2 242//2 123//2
f 14//3 12//3 1//3 79//3 73//3 113//3 123//3 242//3 248//3 228//3 226//3 223//3 221//3 218//3 219//3 215//3 216//3 229//3 232//3 233//3 235//3 255//3 249//3 184//3 167//3 148//3 156//3 5//3
