# Blender v2.77 (sub 0) OBJ File: ''
# www.blender.org
mtllib Test Level.mtl
o Cube_Cube.001
v -8.000000 0.000000 1.000000
v -8.000000 2.442537 1.000000
v -8.000000 0.000000 -1.000000
v -8.000000 2.442537 -1.000000
v 8.000000 0.000000 1.000000
v 8.000000 0.200000 1.000000
v 8.000000 0.000000 -1.000000
v 8.000000 0.200000 -1.000000
v 0.000000 0.200000 -1.000000
v 0.000000 0.000000 -1.000000
v 0.000000 0.200000 1.000000
v 0.000000 0.000000 1.000000
v 7.400000 0.200000 -1.000000
v 7.400000 0.000000 1.000000
v 7.400000 0.000000 -1.000000
v 7.400000 0.200000 1.000000
v -7.400000 0.000000 -1.000000
v -7.400000 2.442537 1.000000
v -7.400000 2.442537 -1.000000
v -7.400000 0.000000 1.000000
v -8.000000 7.900000 1.000000
v -8.000000 7.900000 -1.000000
v -7.400000 7.900000 1.000000
v -7.400000 7.900000 -1.000000
v 7.400000 7.900000 -1.000000
v 8.000000 7.900000 -1.000000
v 8.000000 7.900000 1.000000
v 7.400000 7.900000 1.000000
v 8.000000 7.707500 -1.000000
v 8.000000 7.707500 1.000000
v 7.400000 7.707500 1.000000
v 7.400000 7.707500 -1.000000
v -8.000000 7.707500 1.000000
v -8.000000 7.707500 -1.000000
v -7.400000 7.707500 -1.000000
v -7.400000 7.707500 1.000000
v 8.000000 4.800000 1.000000
v 7.400000 4.800000 -1.000000
v 8.000000 4.800000 -1.000000
v 7.400000 4.800000 1.000000
v 8.000000 5.000000 -1.000000
v 7.400000 5.000000 1.000000
v 8.000000 5.000000 1.000000
v 7.400000 5.000000 -1.000000
v -4.845877 5.000000 -1.000000
v -4.845877 4.800000 -1.000000
v -4.845877 4.800000 1.000000
v -4.845877 5.000000 1.000000
vn -1.0000 0.0000 0.0000
vn 0.0000 0.0000 -1.0000
vn 1.0000 0.0000 0.0000
vn 0.0000 0.0000 1.0000
vn 0.0000 -1.0000 0.0000
vn 0.0000 1.0000 0.0000
vn 0.2900 0.9570 0.0000
usemtl None
s off
f 2//1 4//1 3//1 1//1
f 13//2 8//2 7//2 15//2
f 8//3 6//3 5//3 7//3
f 18//4 2//4 1//4 20//4
f 14//5 15//5 7//5 5//5
f 34//1 33//1 21//1 22//1
f 16//6 13//6 9//6 11//6
f 20//5 17//5 10//5 12//5
f 16//4 11//4 12//4 14//4
f 19//2 9//2 10//2 17//2
f 6//4 16//4 14//4 5//4
f 30//3 29//3 26//3 27//3
f 12//5 10//5 15//5 14//5
f 9//2 13//2 15//2 10//2
f 4//2 19//2 17//2 3//2
f 1//5 3//5 17//5 20//5
f 11//7 9//7 19//7 18//7
f 11//4 18//4 20//4 12//4
f 23//6 24//6 22//6 21//6
f 33//4 36//4 23//4 21//4
f 35//2 34//2 22//2 24//2
f 27//6 26//6 25//6 28//6
f 31//4 30//4 27//4 28//4
f 29//2 32//2 25//2 26//2
f 41//2 44//2 32//2 29//2
f 42//4 43//4 30//4 31//4
f 44//1 42//1 31//1 32//1
f 43//3 41//3 29//3 30//3
f 19//2 4//2 34//2 35//2
f 2//4 18//4 36//4 33//4
f 18//3 19//3 35//3 36//3
f 4//1 2//1 33//1 34//1
f 23//6 28//6 25//6 24//6
f 35//2 24//2 25//2 32//2
f 31//5 36//5 35//5 32//5
f 31//4 28//4 23//4 36//4
f 6//3 8//3 39//3 37//3
f 13//1 16//1 40//1 38//1
f 16//4 6//4 37//4 40//4
f 8//2 13//2 38//2 39//2
f 37//3 39//3 41//3 43//3
f 40//4 42//4 48//4 47//4
f 40//4 37//4 43//4 42//4
f 39//2 38//2 44//2 41//2
f 46//1 47//1 48//1 45//1
f 38//5 40//5 47//5 46//5
f 44//2 38//2 46//2 45//2
f 42//6 44//6 45//6 48//6
