# Blender v2.77 (sub 0) OBJ File: 'Test Level.obj'
# www.blender.org
mtllib Test Level.mtl
o Cube_Cube.001
v -8.000000 2.442537 1.000000
v -8.000000 2.442537 -1.000000
v -8.000000 0.000000 -1.000000
v -8.000000 -0.000000 1.000000
v 7.400000 0.200000 -1.000000
v 8.000000 0.200000 -1.000000
v 8.000000 0.000000 -1.000000
v 7.400000 0.000000 -1.000000
v 8.000000 0.200000 1.000000
v 8.000000 -0.000000 1.000000
v -7.400000 2.442537 1.000000
v -7.400000 -0.000000 1.000000
v 7.400000 -0.000000 1.000000
v -8.000000 7.707500 -0.999999
v -8.000000 7.707500 1.000001
v -8.000000 7.900000 1.000001
v -8.000000 7.900000 -0.999999
v 7.400000 0.200000 1.000000
v 0.000000 0.200000 -1.000000
v 0.000000 0.200000 1.000000
v -7.400000 0.000000 -1.000000
v 0.000000 0.000000 -1.000000
v 0.000000 -0.000000 1.000000
v -7.400000 2.442537 -1.000000
v 8.000000 7.707500 1.000001
v 8.000000 7.707500 -0.999999
v 8.000000 7.900000 -0.999999
v 8.000000 7.900000 1.000001
v -7.400000 7.900000 1.000001
v -7.400000 7.900000 -0.999999
v -7.400000 7.707500 1.000001
v -7.400000 7.707500 -0.999999
v 7.400000 7.900000 -0.999999
v 7.400000 7.900000 1.000001
v 7.400000 7.707500 1.000001
v 7.400000 7.707500 -0.999999
v 8.000000 5.000000 -0.999999
v 7.400000 5.000000 -0.999999
v 7.400000 5.000000 1.000001
v 8.000000 5.000000 1.000001
v 8.000000 4.800000 -0.999999
v 8.000000 4.800000 1.000001
v 7.400000 4.800000 1.000001
v 7.400000 4.800000 -0.999999
v -4.845877 5.000000 1.000001
v -4.845877 4.800000 1.000001
v -4.845877 4.800000 -0.999999
v -4.845877 5.000000 -0.999999
v 5.020236 4.800000 -0.999999
v 5.020236 5.000000 1.000001
v 5.020236 4.800000 1.000001
v 5.020236 5.000000 -0.999999
v 7.400000 7.900000 -0.999999
v 7.400000 7.900000 1.000001
v -7.400000 7.707500 1.000001
v -7.400000 7.707500 -0.999999
v 7.400000 7.707500 1.000001
v 7.400000 7.707500 -0.999999
v -7.400000 7.900000 1.000001
v -7.400000 7.900000 -0.999999
v 0.900000 7.900000 1.000001
v 0.900000 7.707500 1.000001
v 0.900000 7.707500 -0.999999
v 0.900000 7.900000 -0.999999
v -0.900000 7.707500 1.000001
v -0.900000 7.707500 -0.999999
v -0.900000 7.900000 1.000001
v -0.900000 7.900000 -0.999999
vn -1.0000 0.0000 0.0000
vn 0.0000 0.0000 -1.0000
vn 1.0000 0.0000 0.0000
vn 0.0000 -0.0000 1.0000
vn 0.0000 -1.0000 -0.0000
vn 0.0000 1.0000 0.0000
vn 0.2900 0.9570 0.0000
vn 0.0000 0.0000 0.0000
usemtl None
s off
f 1//1 2//1 3//1 4//1
f 5//2 6//2 7//2 8//2
f 6//3 9//3 10//3 7//3
f 11//4 1//4 4//4 12//4
f 13//5 8//5 7//5 10//5
f 14//1 15//1 16//1 17//1
f 18//6 5//6 19//6 20//6
f 12//5 21//5 22//5 23//5
f 18//4 20//4 23//4 13//4
f 24//2 19//2 22//2 21//2
f 9//4 18//4 13//4 10//4
f 25//3 26//3 27//3 28//3
f 23//5 22//5 8//5 13//5
f 19//2 5//2 8//2 22//2
f 2//2 24//2 21//2 3//2
f 4//5 3//5 21//5 12//5
f 20//7 19//7 24//7 11//7
f 20//4 11//4 12//4 23//4
f 29//6 30//6 17//6 16//6
f 15//4 31//4 29//4 16//4
f 32//2 14//2 17//2 30//2
f 28//6 27//6 33//6 34//6
f 35//4 25//4 28//4 34//4
f 26//2 36//2 33//2 27//2
f 37//2 38//2 36//2 26//2
f 39//4 40//4 25//4 35//4
f 38//1 39//1 35//1 36//1
f 40//3 37//3 26//3 25//3
f 24//2 2//2 14//2 32//2
f 1//4 11//4 31//4 15//4
f 11//3 24//3 32//3 31//3
f 2//1 1//1 15//1 14//1
f 56//2 60//2 68//2 66//2
f 53//2 58//2 63//2 64//2
f 32//4 30//4 60//4 56//4
f 34//8 33//8 53//8 54//8
f 9//3 6//3 41//3 42//3
f 5//1 18//1 43//1 44//1
f 18//4 9//4 42//4 43//4
f 6//2 5//2 44//2 41//2
f 42//3 41//3 37//3 40//3
f 51//4 50//4 45//4 46//4
f 43//4 42//4 40//4 39//4
f 41//2 44//2 38//2 37//2
f 47//1 46//1 45//1 48//1
f 49//5 51//5 46//5 47//5
f 52//2 49//2 47//2 48//2
f 50//6 52//6 48//6 45//6
f 43//1 39//1 38//1 44//1
f 52//3 50//3 51//3 49//3
f 33//4 36//4 58//4 53//4
f 35//4 34//4 54//4 57//4
f 31//8 32//8 56//8 55//8
f 29//4 31//4 55//4 59//4
f 30//8 29//8 59//8 60//8
f 36//8 35//8 57//8 58//8
f 64//1 63//1 62//1 61//1
f 58//5 57//5 62//5 63//5
f 57//4 54//4 61//4 62//4
f 54//6 53//6 64//6 61//6
f 66//3 68//3 67//3 65//3
f 60//6 59//6 67//6 68//6
f 59//4 55//4 65//4 67//4
f 55//5 56//5 66//5 65//5
